<svg xmlns="http://www.w3.org/2000/svg" viewBox="0 0 640 300" width="640" height="300" role="img" aria-label="교무실 책상">
  <rect width="640" height="300" fill="#F5F9FC"/>
  <rect x="40" y="30" width="180" height="120" rx="6" fill="#EEF4F9" stroke="#9DBCD4" stroke-width="3"/>
  <path d="M130 30 L130 150 M40 90 L220 90" stroke="#9DBCD4" stroke-width="3"/>
  <circle cx="185" cy="58" r="14" fill="#FBD46D"/>
  <rect x="430" y="34" width="150" height="104" rx="6" fill="#FFFFFF" stroke="#2F6690" stroke-width="3"/>
  <path d="M446 62 h84 M446 82 h118 M446 102 h96" stroke="#9DBCD4" stroke-width="6" stroke-linecap="round"/>
  <rect x="0" y="196" width="640" height="16" fill="#2F6690"/>
  <rect x="0" y="212" width="640" height="88" fill="#DCE8F1"/>
  <rect x="236" y="96" width="168" height="102" rx="8" fill="#26364A"/>
  <rect x="248" y="108" width="144" height="78" rx="4" fill="#EAF3FA"/>
  <path d="M262 168 v-26 M286 168 v-42 M310 168 v-16 M334 168 v-34 M358 168 v-22" stroke="#2F6690" stroke-width="8" stroke-linecap="round"/>
  <rect x="296" y="198" width="48" height="10" rx="3" fill="#26364A"/>
  <rect x="90" y="166" width="104" height="30" rx="4" fill="#FFFFFF" stroke="#9DBCD4" stroke-width="3"/>
  <path d="M106 178 h72 M106 188 h52" stroke="#C6D9E7" stroke-width="5" stroke-linecap="round"/>
  <path d="M448 172 h56 v22 a10 10 0 0 1 -10 10 h-36 a10 10 0 0 1 -10 -10 z" fill="#FFFFFF" stroke="#2F6690" stroke-width="3"/>
  <path d="M504 178 h14 a10 10 0 0 1 0 20 h-14" fill="none" stroke="#2F6690" stroke-width="3"/>
  <path d="M462 160 q6 -10 0 -20 M480 160 q6 -10 0 -20" stroke="#9DBCD4" stroke-width="3" stroke-linecap="round"/>
  <rect x="540" y="150" width="56" height="46" rx="4" fill="#FBD46D" stroke="#E0B84E" stroke-width="3"/>
  <path d="M552 166 h32 M552 178 h24" stroke="#B98F2F" stroke-width="4" stroke-linecap="round"/>
</svg>
